<?xml version="1.0" encoding="iso-8859-1"?>
<!-- Generator: Adobe Illustrator 16.0.0, SVG Export Plug-In . SVG Version: 6.00 Build 0)  -->
<!DOCTYPE svg PUBLIC "-//W3C//DTD SVG 1.1//EN" "http://www.w3.org/Graphics/SVG/1.1/DTD/svg11.dtd">
<svg version="1.1" id="Capa_1" xmlns="http://www.w3.org/2000/svg" xmlns:xlink="http://www.w3.org/1999/xlink" x="0px" y="0px"
	 width="186.139px" height="186.14px" viewBox="0 0 186.139 186.14" style="enable-background:new 0 0 186.139 186.14;"
	 xml:space="preserve">
<g>
	<path d="M166.329,111.803c0-5.955-3.587-11.04-8.671-13.366c3.446-15.341,6.339-26.141,6.363-26.247
		c0.28-1.041,0.03-2.149-0.664-2.98c-0.694-0.816-1.735-1.227-2.825-1.133c-1.772,0.174-42.88,4.737-67.157,32.127
		c-24.424-26.427-65.882-31.904-67.69-32.121c-1.078-0.152-2.162,0.28-2.874,1.102c-0.715,0.822-0.977,1.945-0.691,2.999
		c0.024,0.112,2.911,10.906,6.366,26.241c-5.082,2.326-8.674,7.404-8.674,13.365c0,8.002,6.437,14.48,14.386,14.682
		c1.757,9.621,3.212,18.669,4.232,26.731c0.165,1.229,0.999,2.265,2.171,2.685c0.344,0.122,33.819,11.959,48.911,29.143
		c0.655,0.731,1.56,1.109,2.47,1.109c0.311,0,0.578-0.238,0.877-0.329c0.063,0.024,0.095,0.104,0.152,0.115
		c0.377,0.152,0.771,0.214,1.166,0.214c0.922,0,1.823-0.378,2.469-1.109c15.083-17.184,48.555-29.021,48.908-29.143
		c1.169-0.414,2.01-1.449,2.18-2.685c1.035-8.239,2.484-17.269,4.227-26.731C159.892,126.282,166.329,119.815,166.329,111.803z
		 M26.373,111.803c0-4.536,3.678-8.202,8.199-8.202c4.527,0,8.199,3.678,8.199,8.202s-3.681,8.19-8.199,8.19
		C30.05,119.993,26.373,116.327,26.373,111.803z M44.686,150.401c-1.023-7.69-2.408-16.209-4.056-25.209
		c5.109-2.326,8.705-7.422,8.705-13.39c0-8.014-6.451-14.505-14.422-14.681c-2.101-9.329-3.995-17.044-5.182-21.696
		c11.904,2.308,42.895,10.126,60.828,31.402c0.216,0.255,0.566,0.219,0.841,0.39l-0.476,70.025
		C76.042,162.927,51.737,153.051,44.686,150.401z M97.497,174.972l0.481-70.147c17.914-20.462,47.075-27.465,58.456-29.489
		c-1.176,4.649-3.094,12.397-5.194,21.774c-7.983,0.188-14.432,6.668-14.432,14.693c0,5.968,3.593,11.052,8.701,13.378
		c-1.638,8.872-3.014,17.379-4.049,25.221C134.775,152.911,112.476,161.868,97.497,174.972z M151.569,119.993
		c-4.531,0-8.196-3.679-8.196-8.19c0-4.536,3.684-8.202,8.196-8.202c4.53,0,8.195,3.678,8.195,8.202
		S156.086,119.993,151.569,119.993z M82.414,74.902c0.344,0,0.573-0.268,0.893-0.375c0.983,1.105,2.006,2.183,3.196,3.124
		c4.698,3.73,10.568,5.788,16.548,5.788c8.153,0,15.722-3.647,20.788-10.02c9.085-11.417,7.216-28.047-4.104-37.208
		C119.071,16.148,102.642,0,82.414,0C61.762,0,44.959,16.803,44.959,37.448C44.959,58.093,61.762,74.902,82.414,74.902z
		 M118.699,69.334c-6.637,8.369-19.698,9.883-28.11,3.193c-8.637-6.884-10.065-19.516-3.193-28.153
		c3.806-4.801,9.511-7.544,15.655-7.544c4.566,0,8.865,1.51,12.458,4.366C124.13,48.08,125.574,60.706,118.699,69.334z
		 M82.414,6.558c15.229,0,27.846,11.106,30.36,25.639c-3.087-1.221-6.362-1.934-9.736-1.934c-8.153,0-15.722,3.657-20.779,10.029
		c-6.473,8.116-7.294,18.854-3.212,27.702c-15.439-1.696-27.535-14.666-27.535-30.552C51.518,20.426,65.374,6.558,82.414,6.558z"/>
</g>
</svg>
